<svg width="24" height="24" viewBox="0 0 24 24" fill="none" xmlns="http://www.w3.org/2000/svg">
<path d="M17.028 0H6.972C2.604 0 0 2.604 0 6.972V17.028C0 21.396 2.604 24 6.972 24H17.028C21.396 24 24 21.396 24 17.028V6.972C24 2.604 21.396 0 17.028 0ZM9.564 15.48L6.864 18.18C6.684 18.36 6.456 18.444 6.228 18.444C6 18.444 5.76 18.36 5.592 18.18L4.692 17.28C4.332 16.932 4.332 16.356 4.692 16.008C5.04 15.66 5.604 15.66 5.964 16.008L6.228 16.272L8.292 14.208C8.64 13.86 9.204 13.86 9.564 14.208C9.912 14.556 9.912 15.132 9.564 15.48ZM9.564 7.08L6.864 9.78C6.684 9.96 6.456 10.044 6.228 10.044C6 10.044 5.76 9.96 5.592 9.78L4.692 8.88C4.332 8.532 4.332 7.956 4.692 7.608C5.04 7.26 5.604 7.26 5.964 7.608L6.228 7.872L8.292 5.808C8.64 5.46 9.204 5.46 9.564 5.808C9.912 6.156 9.912 6.732 9.564 7.08ZM18.672 17.544H12.372C11.88 17.544 11.472 17.136 11.472 16.644C11.472 16.152 11.88 15.744 12.372 15.744H18.672C19.176 15.744 19.572 16.152 19.572 16.644C19.572 17.136 19.176 17.544 18.672 17.544ZM18.672 9.144H12.372C11.88 9.144 11.472 8.736 11.472 8.244C11.472 7.752 11.88 7.344 12.372 7.344H18.672C19.176 7.344 19.572 7.752 19.572 8.244C19.572 8.736 19.176 9.144 18.672 9.144Z" fill="#A7A7A7"/>
</svg>
