<svg width="19" height="18" viewBox="0 0 19 18" fill="none" xmlns="http://www.w3.org/2000/svg">
<path d="M13.0569 2.24251C12.9657 2.1552 12.8573 2.08594 12.738 2.03867C12.6187 1.99141 12.4908 1.96708 12.3616 1.96708C12.2325 1.96708 12.1046 1.99141 11.9853 2.03867C11.866 2.08594 11.7576 2.1552 11.6664 2.24251L5.13792 8.47501C5.06509 8.5444 5.00731 8.62681 4.96789 8.71754C4.92846 8.80827 4.90817 8.90553 4.90817 9.00376C4.90817 9.10199 4.92846 9.19925 4.96789 9.28998C5.00731 9.38071 5.06509 9.46313 5.13792 9.53251L11.6664 15.765C12.0513 16.1325 12.672 16.1325 13.0569 15.765C13.4419 15.3975 13.4419 14.805 13.0569 14.4375L7.36906 9.00001L13.0648 3.56251C13.4419 3.20251 13.4419 2.60251 13.0569 2.24251Z" fill="#1E232C" stroke="#1E232C" stroke-width="0.2"/>
</svg>
