<svg width="24" height="24" viewBox="0 0 24 24" fill="none" xmlns="http://www.w3.org/2000/svg">
<path d="M8.5774 6.58539C7.90546 6.58539 7.3775 7.12534 7.3775 7.78529C7.3775 8.44523 7.91746 8.98518 8.5774 8.98518C9.23734 8.98518 9.77725 8.44523 9.77725 7.78529C9.77725 7.12534 9.23734 6.58539 8.5774 6.58539Z" fill="#9B9FD0"/>
<path d="M23.35 3.64769C22.3421 1.30789 20.1223 0 17.0266 0H6.97141C3.11973 0 0 3.11973 0 6.97141V17.0266C0 20.1223 1.30789 22.3421 3.64769 23.35C3.87567 23.446 4.13965 23.386 4.30763 23.218L23.218 4.30763C23.398 4.12765 23.458 3.86367 23.35 3.64769ZM10.2351 12.287C9.76717 12.7429 9.15522 12.9589 8.54327 12.9589C7.93133 12.9589 7.31938 12.7309 6.85142 12.287C5.62752 11.1351 4.28364 9.29921 4.79959 7.11539C5.25555 5.13556 7.0074 4.24764 8.54327 4.24764C10.0791 4.24764 11.831 5.13556 12.287 7.12739C12.7909 9.29921 11.447 11.1351 10.2351 12.287Z" fill="#9B9FD0"/>
<path d="M20.9609 22.2335C21.2249 22.4975 21.1889 22.9295 20.8649 23.1094C19.809 23.6974 18.5251 23.9974 17.0252 23.9974H6.9701C6.62213 23.9974 6.47814 23.5894 6.71812 23.3494L13.9655 16.102C14.2055 15.8621 14.5774 15.8621 14.8174 16.102L20.9609 22.2335Z" fill="#9B9FD0"/>
<path d="M24 6.9701V17.0252C24 18.5251 23.7 19.821 23.112 20.8649C22.9321 21.1889 22.5001 21.2129 22.2361 20.9609L16.0926 14.8174C15.8527 14.5774 15.8527 14.2055 16.0926 13.9655L23.34 6.71812C23.592 6.47814 24 6.62213 24 6.9701Z" fill="#9B9FD0"/>
</svg>
